<svg width="25" height="25" viewBox="0 0 25 25" fill="none" xmlns="http://www.w3.org/2000/svg">
<path d="M22.9166 12.5C22.9166 6.74703 18.2529 2.08333 12.5 2.08333C6.74701 2.08333 2.08331 6.74703 2.08331 12.5C2.08331 18.2529 6.74701 22.9167 12.5 22.9167" fill="#00B3FF"/>
<path d="M22.9166 12.5C22.9166 6.74703 18.2529 2.08333 12.5 2.08333C6.74701 2.08333 2.08331 6.74703 2.08331 12.5C2.08331 18.2529 6.74701 22.9167 12.5 22.9167" stroke="#00B3FF" stroke-width="1.5" stroke-linecap="round"/>
<path d="M20.8334 5.93644C19.8597 6.00662 18.6126 6.38358 17.7478 7.50288C16.186 9.52459 14.624 9.69329 13.5827 9.01938C12.0207 8.00854 13.3334 6.3712 11.5001 5.4814C10.3054 4.90147 10.1388 3.32338 10.8038 2.08333" fill="#24FF00"/>
<path d="M2.08331 11.4583C2.87758 12.148 3.99004 12.7794 5.30075 12.7794C8.00876 12.7794 8.55037 13.2968 8.55037 15.3665C8.55037 17.4361 8.55036 17.4361 9.09197 18.9883C9.44426 19.998 9.5674 21.0077 8.86519 21.875" fill="#24FF00"/>
<path d="M2.08331 11.4583C2.87758 12.148 3.99004 12.7794 5.30075 12.7794C8.00876 12.7794 8.55037 13.2968 8.55037 15.3665C8.55037 17.4361 8.55036 17.4361 9.09197 18.9883C9.44426 19.998 9.5674 21.0077 8.86519 21.875" stroke="#24FF00" stroke-width="1.5" stroke-linejoin="round"/>
<path d="M22.3643 23.4691C22.6694 23.7742 23.164 23.7742 23.4691 23.4691C23.7742 23.164 23.7742 22.6694 23.4691 22.3643L22.3643 23.4691ZM20.4893 21.5941L22.3643 23.4691L23.4691 22.3643L21.5941 20.4893L20.4893 21.5941ZM22.7604 17.7604C22.7604 14.999 20.5219 12.7604 17.7604 12.7604V14.3229C19.6589 14.3229 21.1979 15.862 21.1979 17.7604H22.7604ZM17.7604 12.7604C14.999 12.7604 12.7604 14.999 12.7604 17.7604H14.3229C14.3229 15.862 15.862 14.3229 17.7604 14.3229V12.7604ZM12.7604 17.7604C12.7604 20.5219 14.999 22.7604 17.7604 22.7604V21.1979C15.862 21.1979 14.3229 19.6589 14.3229 17.7604H12.7604ZM17.7604 22.7604C20.5219 22.7604 22.7604 20.5219 22.7604 17.7604H21.1979C21.1979 19.6589 19.6589 21.1979 17.7604 21.1979V22.7604Z" fill="white"/>
</svg>
