<svg width="32" height="32" viewBox="0 0 32 32" fill="none" xmlns="http://www.w3.org/2000/svg">
<path d="M28.6263 30.0404C29.0168 30.4309 29.6499 30.4309 30.0404 30.0404C30.4309 29.6498 30.4309 29.0168 30.0404 28.6262L28.6263 30.0404ZM26.2263 27.6404L28.6263 30.0404L30.0404 28.6262L27.6404 26.2262L26.2263 27.6404ZM29.1333 22.7333C29.1333 19.1986 26.268 16.3333 22.7333 16.3333V18.3333C25.1633 18.3333 27.1333 20.3033 27.1333 22.7333H29.1333ZM22.7333 16.3333C19.1987 16.3333 16.3333 19.1986 16.3333 22.7333H18.3333C18.3333 20.3033 20.3033 18.3333 22.7333 18.3333V16.3333ZM16.3333 22.7333C16.3333 26.268 19.1987 29.1333 22.7333 29.1333V27.1333C20.3033 27.1333 18.3333 25.1633 18.3333 22.7333H16.3333ZM22.7333 29.1333C26.268 29.1333 29.1333 26.268 29.1333 22.7333H27.1333C27.1333 25.1633 25.1633 27.1333 22.7333 27.1333V29.1333Z" fill=""/>
<path d="M29.3333 16C29.3333 8.63622 23.3637 2.66669 16 2.66669C8.63619 2.66669 2.66666 8.63622 2.66666 16C2.66666 23.3638 8.63619 29.3334 16 29.3334" stroke="" stroke-width="1.5" stroke-linecap="round"/>
<path d="M26.6667 7.59867C25.4204 7.6885 23.8241 8.17101 22.7172 9.60371C20.718 12.1915 18.7187 12.4074 17.3859 11.5448C15.3865 10.251 17.0667 8.15517 14.7201 7.01622C13.1908 6.27391 12.9776 4.25395 13.8288 2.66669" stroke="" stroke-width="1.5" stroke-linejoin="round"/>
<path d="M2.66666 14.6667C3.68332 15.5495 5.10727 16.3576 6.78498 16.3576C10.2512 16.3576 10.9445 17.0199 10.9445 19.6691C10.9445 22.3183 10.9445 22.3183 11.6377 24.3051C12.0887 25.5975 12.2463 26.8899 11.3475 28" stroke="" stroke-width="1.5" stroke-linejoin="round"/>
</svg>
